G75*
%MOIN*%
%OFA0B0*%
%FSLAX24Y24*%
%IPPOS*%
%LPD*%
%AMOC8*
5,1,8,0,0,1.08239X$1,22.5*
%
%ADD10C,0.0315*%
%ADD11R,0.0315X0.0315*%
%ADD12R,0.0197X0.0197*%
%ADD13R,0.0433X0.0394*%
%ADD14R,0.0394X0.0709*%
%ADD15R,0.0138X0.0118*%
%ADD16R,0.0118X0.0138*%
%ADD17R,0.0201X0.0157*%
%ADD18R,0.0177X0.0177*%
%ADD19R,0.0157X0.0787*%
%ADD20R,0.0472X0.0315*%
%ADD21R,0.0079X0.0217*%
%ADD22R,0.0217X0.0079*%
%ADD23R,0.0261X0.0261*%
D10*
X013822Y003627D03*
D11*
X013822Y004217D03*
X013822Y004808D03*
X013822Y005398D03*
X013822Y005989D03*
X013822Y006580D03*
X013822Y007170D03*
X013231Y007170D03*
X013231Y006580D03*
X012641Y006580D03*
X012641Y007170D03*
X012050Y007170D03*
X012050Y006580D03*
X011459Y006580D03*
X011459Y007170D03*
X010869Y007170D03*
X010869Y006580D03*
X010278Y006580D03*
X010278Y007170D03*
X010869Y005989D03*
X010869Y005398D03*
X010869Y004808D03*
X011459Y004808D03*
X011459Y005398D03*
X011459Y005989D03*
X012050Y005989D03*
X012641Y005989D03*
X012641Y005398D03*
X012050Y005398D03*
X012050Y004808D03*
X012641Y004808D03*
X013231Y004808D03*
X013231Y005398D03*
X013231Y005989D03*
X013231Y004217D03*
X013231Y003627D03*
X012641Y003627D03*
X012641Y004217D03*
X012050Y004217D03*
X012050Y003627D03*
X011459Y003627D03*
X011459Y004217D03*
X010869Y004217D03*
X010869Y003627D03*
X010278Y003627D03*
X010278Y004217D03*
D12*
X010297Y002772D03*
X009903Y002772D03*
X010950Y002769D03*
X010950Y002375D03*
X013010Y002375D03*
X013010Y002769D03*
X014553Y002622D03*
X014553Y002272D03*
X014553Y001922D03*
X014947Y001922D03*
X014947Y002272D03*
X014947Y002622D03*
X015653Y004222D03*
X016047Y004222D03*
X015947Y006822D03*
X015947Y007172D03*
X016303Y007172D03*
X016303Y006822D03*
X016697Y006822D03*
X016697Y007172D03*
X015553Y007172D03*
X015553Y006822D03*
X015150Y006775D03*
X014800Y006775D03*
X014800Y007169D03*
X015150Y007169D03*
X014850Y008225D03*
X014850Y008619D03*
X015703Y008422D03*
X016097Y008422D03*
X013450Y008369D03*
X013450Y007975D03*
D13*
X009765Y002272D03*
X010435Y002272D03*
D14*
X011508Y002422D03*
X012492Y002422D03*
D15*
X013845Y008227D03*
X013845Y008424D03*
X013845Y008620D03*
X013845Y008817D03*
X014455Y008817D03*
X014455Y008620D03*
X014455Y008424D03*
X014455Y008227D03*
D16*
X014248Y008217D03*
X014052Y008217D03*
X014052Y008827D03*
X014248Y008827D03*
D17*
X015693Y007785D03*
X016205Y007589D03*
X016205Y007982D03*
X018083Y007812D03*
X018083Y008206D03*
X018595Y008009D03*
D18*
X015817Y002339D03*
X015817Y002005D03*
X015483Y002005D03*
X015483Y002339D03*
D19*
X016478Y003772D03*
X016950Y003772D03*
X017422Y003772D03*
D20*
X017550Y007868D03*
X016980Y007870D03*
X016980Y008579D03*
X017550Y008576D03*
D21*
X016431Y006300D03*
X016254Y006300D03*
X016077Y006300D03*
X015900Y006300D03*
X015723Y006300D03*
X015546Y006300D03*
X015369Y006300D03*
X015369Y004744D03*
X015546Y004744D03*
X015723Y004744D03*
X015900Y004744D03*
X016077Y004744D03*
X016254Y004744D03*
X016431Y004744D03*
D22*
X016678Y004991D03*
X016678Y005168D03*
X016678Y005345D03*
X016678Y005522D03*
X016678Y005699D03*
X016678Y005876D03*
X016678Y006054D03*
X015122Y006054D03*
X015122Y005876D03*
X015122Y005699D03*
X015122Y005522D03*
X015122Y005345D03*
X015122Y005168D03*
X015122Y004991D03*
D23*
X015639Y005261D03*
X016161Y005261D03*
X016161Y005783D03*
X015639Y005783D03*
M02*
