%
M48
M72
T01C0.0080
T02C0.0150
T03C0.0400
%
T01
X9050Y3572
X9150Y3322
X9250Y3072
X9350Y2822
X9350Y2402
X9350Y2142
X8950Y3822
X8850Y4072
X8950Y4522
X9200Y4622
X9450Y4722
X10500Y4672
X10870Y4512
X10620Y5648
X10600Y6222
X10276Y6174
X11170Y6262
X11450Y6272
X12300Y6322
X12339Y5709
X12351Y5111
X12900Y5122
X12937Y5662
X13230Y6302
X13230Y6892
X13820Y6891
X14073Y6322
X14300Y5972
X14737Y6068
X14737Y5713
X14800Y6472
X15150Y6472
X15600Y5822
X15600Y5172
X14950Y4672
X15150Y4472
X14700Y4472
X14500Y4972
X14195Y4818
X13525Y5105
X12937Y4517
X13550Y3322
X14100Y3322
X13400Y2522
X13010Y2072
X13700Y1972
X12350Y3272
X12050Y3272
X10950Y2072
X15450Y4022
X16050Y3922
X16700Y4722
X16200Y5172
X16700Y6522
X15700Y7572
X15400Y8122
X15300Y8622
X15100Y9022
X14850Y7922
X14200Y7722
X14450Y6672
X12950Y8172
X13150Y8372
X12200Y7972
X11450Y7522
X10869Y7542
X10278Y7542
X16036Y3036
X16150Y2322
X16950Y3222
X18300Y6172
X18600Y6272
X18850Y6422
X18850Y6722
X18450Y7422
X18450Y7672
X18750Y7672
X17650Y8872
X17400Y8872
X17100Y8872
X16850Y8872
X16450Y8422
T02
X11650Y8622
X10650Y8622
X9650Y8622
T03
X17350Y1922
X18350Y1922
X18350Y2922
X18350Y3922
X19750Y3922
X19750Y4922
X20750Y4922
X20750Y3922
X21750Y3922
X21750Y4922
X22750Y4922
X22750Y3922
X22750Y2922
X22750Y1922
X21750Y1922
X20750Y1922
X19750Y1922
X19750Y2922
X20750Y2922
X21750Y2922
X23750Y2922
X23750Y3922
X23750Y4922
X24750Y4922
X24750Y3922
X24750Y5922
X24750Y6922
X23750Y6922
X23750Y5922
X22750Y5922
X22750Y6922
X21750Y6922
X21750Y5922
X20750Y5922
X20750Y6922
X19750Y6922
X19750Y5922
X19750Y7922
X20750Y7922
X21750Y7922
X22750Y7922
X23750Y7922
X22750Y8922
X21750Y8922
X20750Y8922
X19750Y8922
X18350Y8922
M30
